%TF.GenerationSoftware,Altium Limited,Altium Designer,24.3.1 (35)*%
G04 Layer_Color=8421504*
%FSLAX45Y45*%
%MOMM*%
%TF.SameCoordinates,9497362C-8314-4730-AF2A-4C837BA13D10*%
%TF.FilePolarity,Positive*%
%TF.FileFunction,Paste,Top*%
%TF.Part,Single*%
G01*
G75*
%TA.AperFunction,SMDPad,CuDef*%
%ADD10R,1.50000X2.12000*%
G04:AMPARAMS|DCode=11|XSize=0.6mm|YSize=2.05mm|CornerRadius=0.15mm|HoleSize=0mm|Usage=FLASHONLY|Rotation=270.000|XOffset=0mm|YOffset=0mm|HoleType=Round|Shape=RoundedRectangle|*
%AMROUNDEDRECTD11*
21,1,0.60000,1.75000,0,0,270.0*
21,1,0.30000,2.05000,0,0,270.0*
1,1,0.30000,-0.87500,-0.15000*
1,1,0.30000,-0.87500,0.15000*
1,1,0.30000,0.87500,0.15000*
1,1,0.30000,0.87500,-0.15000*
%
%ADD11ROUNDEDRECTD11*%
%ADD12R,0.47247X0.51535*%
%ADD13R,1.15000X0.30000*%
%ADD14R,1.15000X0.60000*%
G04:AMPARAMS|DCode=15|XSize=2.2mm|YSize=0.345mm|CornerRadius=0.1725mm|HoleSize=0mm|Usage=FLASHONLY|Rotation=90.000|XOffset=0mm|YOffset=0mm|HoleType=Round|Shape=RoundedRectangle|*
%AMROUNDEDRECTD15*
21,1,2.20000,0.00000,0,0,90.0*
21,1,1.85500,0.34500,0,0,90.0*
1,1,0.34500,0.00000,0.92750*
1,1,0.34500,0.00000,-0.92750*
1,1,0.34500,0.00000,-0.92750*
1,1,0.34500,0.00000,0.92750*
%
%ADD15ROUNDEDRECTD15*%
%ADD16R,0.34500X2.20000*%
%ADD17R,0.80000X0.80000*%
%ADD18R,0.40000X0.80000*%
%ADD19R,0.80000X0.40000*%
%TA.AperFunction,BGAPad,CuDef*%
%ADD21R,1.20000X1.20000*%
G36*
X17883501Y9591900D02*
Y9711900D01*
X17943500D01*
X18003500Y9651900D01*
Y9591900D01*
X17883501D01*
D02*
G37*
D10*
X6054898Y6489700D02*
D03*
Y6066699D02*
D03*
X9080500Y6083300D02*
D03*
Y6506301D02*
D03*
X10490200Y7665903D02*
D03*
Y8088899D02*
D03*
X7286198Y6066699D02*
D03*
Y6489700D02*
D03*
X11277600Y7666899D02*
D03*
Y8089900D02*
D03*
X8229600Y6066699D02*
D03*
Y6489700D02*
D03*
D11*
X14791101Y9994900D02*
D03*
Y9867900D02*
D03*
Y9740900D02*
D03*
Y9613900D02*
D03*
Y9486900D02*
D03*
Y9359900D02*
D03*
X13860098Y9105900D02*
D03*
Y8851900D02*
D03*
Y9232900D02*
D03*
Y9486900D02*
D03*
Y8978900D02*
D03*
Y9359900D02*
D03*
X14791101Y8851900D02*
D03*
Y8978900D02*
D03*
Y9232900D02*
D03*
X13860098Y9613900D02*
D03*
Y9740900D02*
D03*
Y9994900D02*
D03*
X14791101Y9105900D02*
D03*
X13860098Y9867900D02*
D03*
D12*
X10744200Y13296655D02*
D03*
Y13220944D02*
D03*
X5981700Y11137656D02*
D03*
Y11061944D02*
D03*
X6451600Y11137656D02*
D03*
Y11061944D02*
D03*
X6946900Y11137656D02*
D03*
Y11061944D02*
D03*
X6350000Y13296655D02*
D03*
Y13220944D02*
D03*
X5918200Y13296655D02*
D03*
Y13220944D02*
D03*
X6743700Y13283955D02*
D03*
Y13208244D02*
D03*
X7200900Y13296655D02*
D03*
Y13220944D02*
D03*
X7747000Y13296655D02*
D03*
Y13220944D02*
D03*
X8915400Y13296655D02*
D03*
Y13220944D02*
D03*
X8369300Y13296655D02*
D03*
Y13220944D02*
D03*
X9486900Y13296655D02*
D03*
Y13220944D02*
D03*
X10083800Y13296655D02*
D03*
Y13220944D02*
D03*
X7213600Y12674600D02*
D03*
Y12598888D02*
D03*
X7632700Y12661656D02*
D03*
Y12585944D02*
D03*
D13*
X5498699Y12265401D02*
D03*
Y12215398D02*
D03*
Y12165401D02*
D03*
Y12115399D02*
D03*
Y12065401D02*
D03*
Y12015399D02*
D03*
Y11965402D02*
D03*
Y11915399D02*
D03*
X5550251Y7797500D02*
D03*
Y7747503D02*
D03*
Y7697500D02*
D03*
Y7647498D02*
D03*
Y7597501D02*
D03*
Y7547498D02*
D03*
Y7497501D02*
D03*
Y7447498D02*
D03*
D14*
X5498699Y11850400D02*
D03*
Y12330400D02*
D03*
Y12410399D02*
D03*
Y11770401D02*
D03*
X5550251Y7382500D02*
D03*
Y7862499D02*
D03*
Y7942499D02*
D03*
Y7302500D02*
D03*
D15*
X5048250Y10984200D02*
D03*
X5111750D02*
D03*
X5175250D02*
D03*
X5238750D02*
D03*
X5302250D02*
D03*
X5365750D02*
D03*
X5429250D02*
D03*
X5492750D02*
D03*
Y10504200D02*
D03*
X5429250D02*
D03*
X5365750D02*
D03*
X5302250D02*
D03*
X5238750D02*
D03*
X5175250D02*
D03*
X5111750D02*
D03*
D16*
X5048250D02*
D03*
D17*
X18478500Y10186899D02*
D03*
X17078497D02*
D03*
X18478500Y8786901D02*
D03*
X17078497D02*
D03*
D18*
X18373502Y10186899D02*
D03*
X18288498D02*
D03*
X18203499D02*
D03*
X18118501D02*
D03*
X18033502D02*
D03*
X17948499D02*
D03*
X17863499D02*
D03*
X17778500D02*
D03*
X17693498D02*
D03*
X17608499D02*
D03*
X17523502D02*
D03*
X17438503D02*
D03*
X17353497D02*
D03*
X17268500D02*
D03*
X17183501D02*
D03*
Y8786901D02*
D03*
X17268500D02*
D03*
X17353497D02*
D03*
X17438503D02*
D03*
X17523502D02*
D03*
X17608499D02*
D03*
X17693498D02*
D03*
X17778500D02*
D03*
X17863499D02*
D03*
X17948499D02*
D03*
X18033502D02*
D03*
X18118501D02*
D03*
X18203499D02*
D03*
X18288498D02*
D03*
X18373502D02*
D03*
D19*
X17078497Y10081900D02*
D03*
Y9996902D02*
D03*
Y9911898D02*
D03*
Y9826899D02*
D03*
Y9741901D02*
D03*
Y9656902D02*
D03*
Y9571899D02*
D03*
Y9486900D02*
D03*
Y9401901D02*
D03*
Y9316898D02*
D03*
Y9231899D02*
D03*
Y9146901D02*
D03*
Y9061902D02*
D03*
Y8976898D02*
D03*
Y8891900D02*
D03*
X18478500D02*
D03*
Y8976898D02*
D03*
Y9061902D02*
D03*
Y9146901D02*
D03*
Y9231899D02*
D03*
Y9316898D02*
D03*
Y9401901D02*
D03*
Y9486900D02*
D03*
Y9571899D02*
D03*
Y9656902D02*
D03*
Y9741901D02*
D03*
Y9826899D02*
D03*
Y9911898D02*
D03*
Y9996902D02*
D03*
Y10081900D02*
D03*
D21*
X17778500Y9486900D02*
D03*
X17943500D02*
D03*
Y9321902D02*
D03*
X17778500D02*
D03*
X17613498D02*
D03*
Y9486900D02*
D03*
Y9651898D02*
D03*
X17778500D02*
D03*
%TF.MD5,e99a574c0b7ec26b7bf6a434e2595423*%
M02*
