%TF.GenerationSoftware,Altium Limited,Altium Designer,24.3.1 (35)*%
G04 Layer_Color=8388736*
%FSLAX45Y45*%
%MOMM*%
%TF.SameCoordinates,9497362C-8314-4730-AF2A-4C837BA13D10*%
%TF.FilePolarity,Negative*%
%TF.FileFunction,Soldermask,Top*%
%TF.Part,Single*%
G01*
G75*
%TA.AperFunction,SMDPad,CuDef*%
%ADD12R,0.47247X0.51535*%
%ADD13R,1.15000X0.30000*%
%ADD14R,1.15000X0.60000*%
G04:AMPARAMS|DCode=15|XSize=2.2mm|YSize=0.345mm|CornerRadius=0.1725mm|HoleSize=0mm|Usage=FLASHONLY|Rotation=90.000|XOffset=0mm|YOffset=0mm|HoleType=Round|Shape=RoundedRectangle|*
%AMROUNDEDRECTD15*
21,1,2.20000,0.00000,0,0,90.0*
21,1,1.85500,0.34500,0,0,90.0*
1,1,0.34500,0.00000,0.92750*
1,1,0.34500,0.00000,-0.92750*
1,1,0.34500,0.00000,-0.92750*
1,1,0.34500,0.00000,0.92750*
%
%ADD15ROUNDEDRECTD15*%
%ADD16R,0.34500X2.20000*%
%TA.AperFunction,ComponentPad*%
G04:AMPARAMS|DCode=30|XSize=1mm|YSize=1.8mm|CornerRadius=0.5mm|HoleSize=0mm|Usage=FLASHONLY|Rotation=270.000|XOffset=0mm|YOffset=0mm|HoleType=Round|Shape=RoundedRectangle|*
%AMROUNDEDRECTD30*
21,1,1.00000,0.80000,0,0,270.0*
21,1,0.00000,1.80000,0,0,270.0*
1,1,1.00000,-0.40000,0.00000*
1,1,1.00000,-0.40000,0.00000*
1,1,1.00000,0.40000,0.00000*
1,1,1.00000,0.40000,0.00000*
%
%ADD30ROUNDEDRECTD30*%
G04:AMPARAMS|DCode=31|XSize=1mm|YSize=2.2mm|CornerRadius=0.5mm|HoleSize=0mm|Usage=FLASHONLY|Rotation=270.000|XOffset=0mm|YOffset=0mm|HoleType=Round|Shape=RoundedRectangle|*
%AMROUNDEDRECTD31*
21,1,1.00000,1.20000,0,0,270.0*
21,1,0.00000,2.20000,0,0,270.0*
1,1,1.00000,-0.60000,0.00000*
1,1,1.00000,-0.60000,0.00000*
1,1,1.00000,0.60000,0.00000*
1,1,1.00000,0.60000,0.00000*
%
%ADD31ROUNDEDRECTD31*%
%TA.AperFunction,SMDPad,CuDef*%
%ADD40R,1.70320X2.32320*%
G04:AMPARAMS|DCode=41|XSize=0.8032mm|YSize=2.2532mm|CornerRadius=0.2516mm|HoleSize=0mm|Usage=FLASHONLY|Rotation=270.000|XOffset=0mm|YOffset=0mm|HoleType=Round|Shape=RoundedRectangle|*
%AMROUNDEDRECTD41*
21,1,0.80320,1.75000,0,0,270.0*
21,1,0.30000,2.25320,0,0,270.0*
1,1,0.50320,-0.87500,-0.15000*
1,1,0.50320,-0.87500,0.15000*
1,1,0.50320,0.87500,0.15000*
1,1,0.50320,0.87500,-0.15000*
%
%ADD41ROUNDEDRECTD41*%
%ADD42R,1.00320X1.00320*%
%ADD43R,0.60320X1.00320*%
%ADD44R,1.00320X0.60320*%
%TA.AperFunction,BGAPad,CuDef*%
%ADD45R,1.40320X1.40320*%
%TA.AperFunction,ComponentPad*%
%ADD46C,1.85320*%
%ADD47R,1.85320X1.85320*%
%ADD48C,1.70320*%
%ADD49R,1.70320X1.70320*%
%ADD50R,1.85320X1.85320*%
%ADD51C,1.60320*%
%ADD52R,1.60320X1.60320*%
%ADD53C,2.11320*%
%ADD54R,2.11320X2.11320*%
%ADD55R,1.70320X1.70320*%
%TA.AperFunction,ViaPad*%
%ADD56C,1.47320*%
G36*
X17873500Y9581900D02*
Y9721900D01*
X17948500D01*
X18013499Y9656900D01*
Y9581900D01*
X17873500D01*
D02*
G37*
D12*
X10744200Y13296655D02*
D03*
Y13220944D02*
D03*
X5981700Y11137656D02*
D03*
Y11061944D02*
D03*
X6451600Y11137656D02*
D03*
Y11061944D02*
D03*
X6946900Y11137656D02*
D03*
Y11061944D02*
D03*
X6350000Y13296655D02*
D03*
Y13220944D02*
D03*
X5918200Y13296655D02*
D03*
Y13220944D02*
D03*
X6743700Y13283955D02*
D03*
Y13208244D02*
D03*
X7200900Y13296655D02*
D03*
Y13220944D02*
D03*
X7747000Y13296655D02*
D03*
Y13220944D02*
D03*
X8915400Y13296655D02*
D03*
Y13220944D02*
D03*
X8369300Y13296655D02*
D03*
Y13220944D02*
D03*
X9486900Y13296655D02*
D03*
Y13220944D02*
D03*
X10083800Y13296655D02*
D03*
Y13220944D02*
D03*
X7213600Y12674600D02*
D03*
Y12598888D02*
D03*
X7632700Y12661656D02*
D03*
Y12585944D02*
D03*
D13*
X5498699Y12265401D02*
D03*
Y12215398D02*
D03*
Y12165401D02*
D03*
Y12115399D02*
D03*
Y12065401D02*
D03*
Y12015399D02*
D03*
Y11965402D02*
D03*
Y11915399D02*
D03*
X5550251Y7797500D02*
D03*
Y7747503D02*
D03*
Y7697500D02*
D03*
Y7647498D02*
D03*
Y7597501D02*
D03*
Y7547498D02*
D03*
Y7497501D02*
D03*
Y7447498D02*
D03*
D14*
X5498699Y11850400D02*
D03*
Y12330400D02*
D03*
Y12410399D02*
D03*
Y11770401D02*
D03*
X5550251Y7382500D02*
D03*
Y7862499D02*
D03*
Y7942499D02*
D03*
Y7302500D02*
D03*
D15*
X5048250Y10984200D02*
D03*
X5111750D02*
D03*
X5175250D02*
D03*
X5238750D02*
D03*
X5302250D02*
D03*
X5365750D02*
D03*
X5429250D02*
D03*
X5492750D02*
D03*
Y10504200D02*
D03*
X5429250D02*
D03*
X5365750D02*
D03*
X5302250D02*
D03*
X5238750D02*
D03*
X5175250D02*
D03*
X5111750D02*
D03*
D16*
X5048250D02*
D03*
D30*
X5441198Y11658402D02*
D03*
Y12522398D02*
D03*
X5492750Y7190501D02*
D03*
Y8054503D02*
D03*
D31*
X5041199Y11658402D02*
D03*
Y12522398D02*
D03*
X5092751Y7190501D02*
D03*
Y8054503D02*
D03*
D40*
X6054898Y6489700D02*
D03*
Y6066699D02*
D03*
X9080500Y6083300D02*
D03*
Y6506301D02*
D03*
X10490200Y7665903D02*
D03*
Y8088899D02*
D03*
X7286198Y6066699D02*
D03*
Y6489700D02*
D03*
X11277600Y7666899D02*
D03*
Y8089900D02*
D03*
X8229600Y6066699D02*
D03*
Y6489700D02*
D03*
D41*
X14791101Y9994900D02*
D03*
Y9867900D02*
D03*
Y9740900D02*
D03*
Y9613900D02*
D03*
Y9486900D02*
D03*
Y9359900D02*
D03*
X13860098Y9105900D02*
D03*
Y8851900D02*
D03*
Y9232900D02*
D03*
Y9486900D02*
D03*
Y8978900D02*
D03*
Y9359900D02*
D03*
X14791101Y8851900D02*
D03*
Y8978900D02*
D03*
Y9232900D02*
D03*
X13860098Y9613900D02*
D03*
Y9740900D02*
D03*
Y9994900D02*
D03*
X14791101Y9105900D02*
D03*
X13860098Y9867900D02*
D03*
D42*
X18478500Y10186899D02*
D03*
X17078497D02*
D03*
X18478500Y8786901D02*
D03*
X17078497D02*
D03*
D43*
X18373502Y10186899D02*
D03*
X18288498D02*
D03*
X18203499D02*
D03*
X18118501D02*
D03*
X18033502D02*
D03*
X17948499D02*
D03*
X17863499D02*
D03*
X17778500D02*
D03*
X17693498D02*
D03*
X17608499D02*
D03*
X17523502D02*
D03*
X17438503D02*
D03*
X17353497D02*
D03*
X17268500D02*
D03*
X17183501D02*
D03*
Y8786901D02*
D03*
X17268500D02*
D03*
X17353497D02*
D03*
X17438503D02*
D03*
X17523502D02*
D03*
X17608499D02*
D03*
X17693498D02*
D03*
X17778500D02*
D03*
X17863499D02*
D03*
X17948499D02*
D03*
X18033502D02*
D03*
X18118501D02*
D03*
X18203499D02*
D03*
X18288498D02*
D03*
X18373502D02*
D03*
D44*
X17078497Y10081900D02*
D03*
Y9996902D02*
D03*
Y9911898D02*
D03*
Y9826899D02*
D03*
Y9741901D02*
D03*
Y9656902D02*
D03*
Y9571899D02*
D03*
Y9486900D02*
D03*
Y9401901D02*
D03*
Y9316898D02*
D03*
Y9231899D02*
D03*
Y9146901D02*
D03*
Y9061902D02*
D03*
Y8976898D02*
D03*
Y8891900D02*
D03*
X18478500D02*
D03*
Y8976898D02*
D03*
Y9061902D02*
D03*
Y9146901D02*
D03*
Y9231899D02*
D03*
Y9316898D02*
D03*
Y9401901D02*
D03*
Y9486900D02*
D03*
Y9571899D02*
D03*
Y9656902D02*
D03*
Y9741901D02*
D03*
Y9826899D02*
D03*
Y9911898D02*
D03*
Y9996902D02*
D03*
Y10081900D02*
D03*
D45*
X17778500Y9486900D02*
D03*
X17943500D02*
D03*
Y9321902D02*
D03*
X17778500D02*
D03*
X17613498D02*
D03*
Y9486900D02*
D03*
Y9651898D02*
D03*
X17778500D02*
D03*
D46*
X18796001Y7886700D02*
D03*
X11303000Y5930900D02*
D03*
X18821400Y11569700D02*
D03*
D47*
X18796001Y7378700D02*
D03*
X18821400Y11061700D02*
D03*
D48*
X12153900Y5702300D02*
D03*
X12407900D02*
D03*
X12661900D02*
D03*
X12915900D02*
D03*
X13169901D02*
D03*
X13423900D02*
D03*
X13677901D02*
D03*
X13931900D02*
D03*
X14185899D02*
D03*
X14439900D02*
D03*
X14693900D02*
D03*
X14947900D02*
D03*
X15201900D02*
D03*
X15455901D02*
D03*
X15709900D02*
D03*
X15963901D02*
D03*
X16217900D02*
D03*
X16471899D02*
D03*
X16725900D02*
D03*
X16979900D02*
D03*
X17233900D02*
D03*
X17487900D02*
D03*
X17741901D02*
D03*
X12280900Y12712700D02*
D03*
X12534900D02*
D03*
X12788900D02*
D03*
X13042900D02*
D03*
X13296899D02*
D03*
X13550900D02*
D03*
X13804900D02*
D03*
X14058900D02*
D03*
X14312900D02*
D03*
X14566901D02*
D03*
X14820900D02*
D03*
X15074899D02*
D03*
X15328900D02*
D03*
X15582899D02*
D03*
X15836900D02*
D03*
X16090900D02*
D03*
X16344901D02*
D03*
X16598900D02*
D03*
X16852901D02*
D03*
X17106900D02*
D03*
X17360899D02*
D03*
X17614900D02*
D03*
X17868900D02*
D03*
X11531600Y9486900D02*
D03*
X5207000Y9385300D02*
D03*
Y9639300D02*
D03*
X14483502Y11117702D02*
D03*
Y11767698D02*
D03*
X14033501D02*
D03*
X14439900Y7320402D02*
D03*
Y7970398D02*
D03*
X13989899D02*
D03*
D49*
X17995900Y5702300D02*
D03*
X18122900Y12712700D02*
D03*
X11277600Y9486900D02*
D03*
D50*
X10795000Y5930900D02*
D03*
D51*
X8001000Y11850400D02*
D03*
Y11088400D02*
D03*
X11137900Y10490200D02*
D03*
X11899900D02*
D03*
X5486400Y6210300D02*
D03*
X6350000Y7497501D02*
D03*
X7112000D02*
D03*
X9194800Y10350500D02*
D03*
Y9588500D02*
D03*
Y11850400D02*
D03*
Y11088400D02*
D03*
X6108700Y12482800D02*
D03*
X6870700D02*
D03*
Y11901200D02*
D03*
X6108700D02*
D03*
X6311900Y9563100D02*
D03*
X7073900D02*
D03*
X6311900Y8978900D02*
D03*
X7073900D02*
D03*
X7693198Y10312400D02*
D03*
X8455198D02*
D03*
X11137900Y12001500D02*
D03*
X11899900D02*
D03*
X7693198Y9779000D02*
D03*
X8455198D02*
D03*
X11137900Y11290300D02*
D03*
X11899900D02*
D03*
D52*
X5232400Y6210300D02*
D03*
D53*
X9194800Y8407400D02*
D03*
Y8152399D02*
D03*
D54*
Y7897398D02*
D03*
D55*
X5207000Y9131300D02*
D03*
X14033501Y11117702D02*
D03*
X13989899Y7320402D02*
D03*
D56*
X12009120Y6093460D02*
D03*
X7556500Y8536940D02*
D03*
X5999480Y10259060D02*
D03*
X8369300Y12806680D02*
D03*
X14483080Y10142220D02*
D03*
X7467600Y12598888D02*
D03*
X5534660Y10320020D02*
D03*
X5816600Y12661900D02*
D03*
X18105119Y9649460D02*
D03*
X17457420Y11653520D02*
D03*
X17373599Y9997440D02*
D03*
X15501620Y12969240D02*
D03*
X17726660Y10357978D02*
D03*
X15410181Y9591040D02*
D03*
X17561560Y10652760D02*
D03*
X17254221Y11810340D02*
D03*
X17236440Y12110720D02*
D03*
X16875760Y11963400D02*
D03*
X16598900Y10668000D02*
D03*
X17205960Y9826899D02*
D03*
X17271638Y9146901D02*
D03*
X5298440Y9870440D02*
D03*
X17861279Y8946200D02*
D03*
X5085080Y10205720D02*
D03*
X4960620Y10701020D02*
D03*
X13589000Y9827260D02*
D03*
X15019020Y9217660D02*
D03*
X14569440Y9347200D02*
D03*
X11625580Y5913120D02*
D03*
X17221201Y10055860D02*
D03*
X15603220Y11145520D02*
D03*
X13642340Y9644380D02*
D03*
X11790680Y9779000D02*
D03*
X5405120Y10017760D02*
D03*
X6908800Y10259060D02*
D03*
X14566901Y9989820D02*
D03*
X7559040Y13192760D02*
D03*
X17411700Y11455400D02*
D03*
X15318739Y10142220D02*
D03*
X17472659Y10314940D02*
D03*
X17440819Y9622699D02*
D03*
X5455920Y9481820D02*
D03*
X5111750Y10772140D02*
D03*
X5257800Y12065000D02*
D03*
X8481060Y13192760D02*
D03*
X16489964Y7861300D02*
D03*
X16827499Y12882880D02*
D03*
X17180560Y10759440D02*
D03*
%TF.MD5,07ce957e7948fbc6375bc3d49a559bb8*%
M02*
